<svg xmlns="http://www.w3.org/2000/svg" width="100" height="100"><path d="M69.917 2.403 C 63.926 4.524,60.303 6.247,55.451 9.281 C 50.790 12.196,44.901 16.799,41.125 20.478 L 40.000 21.574 38.875 20.478 C 32.580 14.345,23.865 8.280,16.583 4.963 C 14.500 4.014,10.849 2.589,10.762 2.691 C 10.734 2.724,10.546 3.256,10.342 3.875 L 9.973 5.000 8.736 5.000 L 7.500 5.000 7.500 51.275 L 7.500 97.549 10.625 97.452 C 14.113 97.344,16.270 97.013,19.446 96.099 C 25.769 94.279,32.318 90.412,38.458 84.873 L 40.000 83.482 41.542 84.875 C 50.840 93.273,60.459 97.484,70.375 97.497 L 72.500 97.500 72.500 49.500 C 72.500 23.100,72.481 1.504,72.458 1.509 C 72.435 1.513,71.292 1.916,69.917 2.403 M14.527 9.518 C 21.952 12.863,29.589 18.367,37.377 25.987 L 40.004 28.557 42.627 25.978 C 49.050 19.661,55.109 15.036,61.750 11.379 C 63.280 10.536,67.197 8.667,67.432 8.667 C 67.469 8.667,67.500 27.492,67.500 50.500 L 67.500 92.333 67.125 92.332 C 65.785 92.328,62.037 91.435,59.700 90.563 C 53.836 88.375,48.188 84.505,42.125 78.519 L 40.000 76.421 37.875 78.519 C 31.812 84.505,26.164 88.375,20.300 90.563 C 17.963 91.435,14.215 92.328,12.875 92.332 L 12.500 92.333 12.500 50.500 C 12.500 27.492,12.531 8.667,12.568 8.667 C 12.606 8.667,13.487 9.050,14.527 9.518 " fill="black" stroke="none" fill-rule="evenodd"></path></svg>