<svg xmlns="http://www.w3.org/2000/svg" width="100" height="100"><path d="M46.333 27.684 C 35.562 28.623,24.698 33.721,14.110 42.804 C 12.334 44.327,8.443 47.945,8.374 48.137 C 8.351 48.201,9.114 49.034,10.071 49.988 L 11.810 51.721 13.780 49.837 C 23.936 40.126,34.369 34.420,44.756 32.896 C 48.651 32.324,54.484 32.557,58.328 33.438 C 67.633 35.570,77.154 41.168,86.220 49.837 L 88.190 51.721 89.928 49.989 C 90.884 49.036,91.667 48.217,91.667 48.169 C 91.667 48.052,86.887 43.636,85.417 42.395 C 72.526 31.511,59.344 26.549,46.333 27.684 " fill="black" stroke="none" fill-rule="evenodd"></path></svg>