<svg xmlns="http://www.w3.org/2000/svg" width="100" height="100"><path d="M15.318 17.477 C 20.826 25.739,25.333 32.534,25.333 32.577 C 25.333 32.621,24.752 32.613,24.042 32.561 C 16.860 32.029,12.290 39.480,9.768 55.833 C 8.343 65.076,7.508 78.519,7.502 92.317 L 7.500 97.550 12.208 97.450 C 18.098 97.324,21.790 96.996,26.667 96.165 C 37.594 94.302,46.622 90.408,53.774 84.473 L 55.131 83.346 56.024 83.827 C 58.520 85.171,61.146 84.791,63.177 82.792 C 64.255 81.731,64.884 80.791,65.753 78.946 C 69.994 69.937,72.111 49.381,72.446 13.932 L 72.554 2.448 69.569 2.552 C 66.197 2.669,64.260 2.933,61.426 3.664 C 54.783 5.377,47.428 9.685,40.959 15.651 L 39.982 16.553 39.199 15.804 C 33.224 10.089,25.220 5.378,18.574 3.664 C 15.429 2.853,13.744 2.649,9.360 2.549 L 5.303 2.456 15.318 17.477 M67.434 15.458 C 67.039 42.703,65.761 59.730,63.310 70.417 C 62.179 75.347,60.447 79.177,59.165 79.584 C 58.653 79.746,57.837 79.218,56.375 77.778 L 54.999 76.423 53.208 78.182 C 52.223 79.150,50.967 80.314,50.417 80.770 C 43.183 86.764,33.239 90.550,21.167 91.907 C 18.420 92.216,12.681 92.570,12.551 92.440 C 12.405 92.293,12.807 77.613,13.088 72.833 C 14.095 55.722,16.208 45.263,19.728 39.961 C 20.884 38.220,22.267 37.387,23.717 37.558 C 26.902 37.935,31.630 42.324,36.642 49.556 C 37.224 50.396,37.760 51.146,37.832 51.224 C 37.950 51.349,42.000 48.779,42.000 48.580 C 42.000 48.535,35.925 39.387,28.500 28.249 C 21.074 17.112,15.099 8.000,15.221 8.000 C 15.736 8.000,19.769 9.201,21.088 9.747 C 26.798 12.111,31.991 15.716,37.629 21.232 L 40.008 23.559 42.212 21.397 C 45.067 18.596,46.444 17.397,49.037 15.451 C 53.459 12.133,58.121 9.735,62.391 8.582 C 64.240 8.083,66.140 7.712,66.982 7.685 L 67.547 7.667 67.434 15.458 " fill="black" stroke="none" fill-rule="evenodd"></path></svg>