<svg xmlns="http://www.w3.org/2000/svg" width="100" height="100"><path d="M7.500 51.250 L 7.500 97.500 29.269 97.500 L 51.039 97.500 51.997 96.613 C 53.176 95.521,54.023 95.092,55.000 95.092 C 55.977 95.092,56.824 95.521,58.003 96.613 L 58.961 97.500 74.481 97.500 L 90.000 97.500 90.000 95.000 L 90.000 92.500 75.501 92.500 L 61.003 92.500 60.210 91.890 C 59.112 91.047,57.558 90.371,56.171 90.133 C 54.108 89.779,51.659 90.454,49.790 91.890 L 48.997 92.500 30.749 92.500 L 12.500 92.500 12.500 48.750 L 12.500 5.000 10.000 5.000 L 7.500 5.000 7.500 51.250 " fill="black" stroke="none" fill-rule="evenodd"></path></svg>