<svg xmlns="http://www.w3.org/2000/svg" width="100" height="100"><path d="M46.667 7.687 C 30.908 9.270,18.124 22.423,8.486 46.969 C 8.035 48.117,7.667 49.074,7.667 49.096 C 7.667 49.118,8.154 49.311,8.750 49.525 C 9.346 49.739,9.833 49.953,9.833 50.000 C 9.833 50.047,9.346 50.261,8.750 50.475 C 8.154 50.689,7.667 50.889,7.667 50.920 C 7.667 51.167,10.322 57.529,11.457 60.000 C 19.934 78.464,30.558 89.064,43.333 91.805 C 48.821 92.982,54.534 92.671,60.000 90.897 C 62.130 90.206,65.913 88.361,67.833 87.076 C 77.278 80.756,85.325 69.100,91.731 52.458 L 92.678 50.000 91.731 47.542 C 84.382 28.450,75.013 16.078,63.809 10.671 C 58.521 8.119,52.610 7.090,46.667 7.687 M52.750 12.670 C 61.922 13.694,69.598 18.919,76.617 28.917 C 79.944 33.657,83.664 40.807,86.501 47.919 L 87.331 50.000 86.501 52.081 C 85.206 55.326,83.929 58.149,82.239 61.500 C 73.512 78.805,62.735 87.493,50.000 87.493 C 38.706 87.493,28.987 80.683,20.765 67.007 C 18.378 63.037,15.563 57.254,13.499 52.081 L 12.669 50.000 13.499 47.919 C 17.103 38.887,21.555 30.886,26.068 25.335 C 33.615 16.051,43.024 11.585,52.750 12.670 M57.469 57.680 C 52.757 58.371,49.582 60.852,48.271 64.869 C 47.844 66.175,47.500 68.176,47.500 69.345 L 47.500 70.000 49.970 70.000 L 52.439 70.000 52.624 68.416 C 53.056 64.724,54.727 63.056,58.424 62.623 L 60.000 62.439 60.000 59.970 L 60.000 57.500 59.208 57.520 C 58.773 57.532,57.990 57.603,57.469 57.680 " fill="black" stroke="none" fill-rule="evenodd"></path></svg>