<svg xmlns="http://www.w3.org/2000/svg" width="100" height="100"><path d="M87.500 17.500 L 87.500 32.500 70.000 32.500 L 52.500 32.500 52.500 18.750 L 52.500 5.000 50.000 5.000 L 47.500 5.000 47.500 21.250 L 47.500 37.500 70.000 37.500 L 92.500 37.500 92.500 22.500 L 92.500 7.500 96.250 7.500 L 100.000 7.500 100.000 5.000 L 100.000 2.500 93.750 2.500 L 87.500 2.500 87.500 17.500 M7.500 51.250 L 7.500 97.500 30.000 97.500 L 52.500 97.500 52.500 82.500 L 52.500 67.500 70.000 67.500 L 87.500 67.500 87.500 82.500 L 87.500 97.500 93.750 97.500 L 100.000 97.500 100.000 95.000 L 100.000 92.500 96.250 92.500 L 92.500 92.500 92.500 77.500 L 92.500 62.500 70.000 62.500 L 47.500 62.500 47.500 77.500 L 47.500 92.500 30.000 92.500 L 12.500 92.500 12.500 48.750 L 12.500 5.000 10.000 5.000 L 7.500 5.000 7.500 51.250 " fill="black" stroke="none" fill-rule="evenodd"></path></svg>