<svg xmlns="http://www.w3.org/2000/svg" width="100" height="100"><path d="M87.500 26.572 L 87.500 48.143 86.583 48.410 C 85.320 48.777,82.073 49.423,80.167 49.686 C 78.147 49.965,71.892 49.972,69.917 49.698 C 67.375 49.345,64.349 48.693,62.125 48.019 L 60.000 47.375 57.875 48.019 C 53.396 49.377,49.779 49.906,45.000 49.905 C 39.331 49.904,35.399 49.196,28.958 47.015 L 27.500 46.521 27.500 72.501 L 27.500 98.480 28.708 98.067 C 35.029 95.904,39.360 95.120,45.000 95.120 C 49.794 95.120,53.491 95.666,58.125 97.058 L 60.000 97.621 61.875 97.058 C 66.509 95.666,70.206 95.120,75.000 95.120 C 80.640 95.120,84.971 95.904,91.292 98.067 L 92.500 98.480 92.500 51.740 L 92.500 5.000 90.000 5.000 L 87.500 5.000 87.500 26.572 M61.622 53.093 C 63.605 53.671,66.341 54.253,68.750 54.609 C 71.567 55.026,78.433 55.026,81.250 54.609 C 83.220 54.318,86.639 53.630,87.208 53.410 C 87.485 53.303,87.500 54.280,87.500 72.493 C 87.500 90.697,87.485 91.685,87.208 91.603 C 85.287 91.038,81.589 90.413,78.750 90.173 C 73.559 89.734,68.004 90.239,62.833 91.622 C 61.596 91.953,60.321 92.224,60.000 92.224 C 59.679 92.224,58.404 91.953,57.167 91.622 C 53.367 90.606,48.837 90.003,45.000 90.003 C 41.254 90.003,35.802 90.718,32.792 91.603 C 32.515 91.685,32.500 90.697,32.500 72.493 C 32.500 54.280,32.515 53.303,32.792 53.410 C 33.361 53.630,36.780 54.318,38.750 54.609 C 41.567 55.026,48.433 55.026,51.250 54.609 C 53.680 54.250,56.457 53.656,58.250 53.111 C 59.963 52.592,59.905 52.592,61.622 53.093 " fill="black" stroke="none" fill-rule="evenodd"></path></svg>