<svg xmlns="http://www.w3.org/2000/svg" width="100" height="100"><path d="M9.898 5.027 L 7.713 6.025 17.378 27.721 C 24.179 42.989,27.042 49.589,27.042 50.000 C 27.042 50.411,24.179 57.011,17.377 72.280 L 7.713 93.977 9.815 94.921 C 10.971 95.441,12.000 95.900,12.102 95.942 C 12.214 95.988,15.818 88.073,21.102 76.177 C 25.950 65.265,29.954 56.336,30.000 56.336 C 30.046 56.336,34.050 65.265,38.898 76.177 C 44.182 88.073,47.786 95.988,47.898 95.942 C 48.000 95.900,49.029 95.441,50.185 94.921 L 52.287 93.977 42.623 72.280 C 35.821 57.011,32.958 50.411,32.958 50.000 C 32.958 49.589,35.821 42.989,42.623 27.720 L 52.287 6.023 50.185 5.079 C 49.029 4.559,48.000 4.100,47.898 4.058 C 47.786 4.012,44.182 11.927,38.898 23.823 C 34.050 34.735,30.046 43.664,30.000 43.664 C 29.954 43.664,25.952 34.740,21.106 23.832 C 16.261 12.924,12.248 4.007,12.190 4.015 C 12.131 4.023,11.100 4.479,9.898 5.027 " fill="black" stroke="none" fill-rule="evenodd"></path></svg>