<svg xmlns="http://www.w3.org/2000/svg" width="100" height="100"><path d="M23.247 27.734 C 21.888 28.045,21.165 28.364,19.852 29.237 C 15.918 31.853,11.919 38.121,8.414 47.167 C 8.112 47.946,7.816 48.706,7.755 48.856 C 7.668 49.074,7.868 49.209,8.739 49.521 C 9.341 49.737,9.833 49.953,9.833 50.000 C 9.833 50.047,9.341 50.263,8.739 50.479 C 7.868 50.791,7.668 50.926,7.755 51.144 C 7.816 51.294,8.112 52.054,8.414 52.833 C 9.905 56.681,11.762 60.569,13.455 63.391 C 20.070 74.411,27.726 75.479,34.601 66.339 C 35.854 64.674,37.754 61.419,38.940 58.905 C 39.477 57.768,39.954 56.837,40.000 56.837 C 40.046 56.837,40.533 57.791,41.083 58.958 C 47.458 72.476,55.300 76.088,62.462 68.804 C 64.738 66.490,66.972 63.076,68.940 58.905 C 69.477 57.768,69.954 56.837,70.000 56.837 C 70.046 56.837,70.533 57.791,71.083 58.958 C 74.205 65.578,77.955 70.156,81.554 71.743 C 87.630 74.422,93.650 69.980,98.930 58.921 L 100.000 56.679 100.000 50.000 L 100.000 43.321 98.930 41.079 C 96.151 35.260,93.108 31.193,90.000 29.144 C 85.976 26.492,81.504 27.201,77.612 31.108 C 75.367 33.362,73.009 36.948,71.083 41.040 C 70.533 42.208,70.046 43.163,70.000 43.163 C 69.954 43.163,69.467 42.209,68.917 41.042 C 66.968 36.910,64.737 33.507,62.462 31.198 C 57.718 26.382,52.351 26.350,47.612 31.108 C 45.367 33.362,43.009 36.948,41.083 41.040 C 40.533 42.208,40.046 43.163,40.000 43.163 C 39.954 43.163,39.467 42.209,38.917 41.042 C 36.250 35.386,33.103 31.187,30.000 29.145 C 27.914 27.772,25.391 27.245,23.247 27.734 M27.116 33.198 C 29.988 34.928,33.117 39.820,36.398 47.708 L 37.351 50.000 36.402 52.292 C 33.128 60.203,29.908 65.172,26.917 66.928 C 26.226 67.333,25.898 67.417,25.000 67.417 C 24.102 67.417,23.774 67.333,23.083 66.928 C 20.065 65.156,16.936 60.326,13.600 52.292 L 12.649 50.000 13.598 47.708 C 17.181 39.052,20.707 33.884,23.825 32.716 C 24.760 32.366,26.048 32.555,27.116 33.198 M57.116 33.198 C 59.988 34.928,63.117 39.820,66.398 47.708 L 67.351 50.000 66.402 52.292 C 63.128 60.203,59.908 65.172,56.917 66.928 C 56.226 67.333,55.898 67.417,55.000 67.417 C 54.102 67.417,53.774 67.333,53.083 66.928 C 50.065 65.156,46.936 60.326,43.600 52.292 L 42.649 50.000 43.598 47.708 C 47.181 39.052,50.707 33.884,53.825 32.716 C 54.760 32.366,56.048 32.555,57.116 33.198 M87.116 33.198 C 89.988 34.928,93.117 39.820,96.398 47.708 L 97.351 50.000 96.402 52.292 C 93.128 60.203,89.908 65.172,86.917 66.928 C 86.226 67.333,85.898 67.417,85.000 67.417 C 84.102 67.417,83.774 67.333,83.083 66.928 C 80.065 65.156,76.936 60.326,73.600 52.292 L 72.649 50.000 73.598 47.708 C 77.181 39.052,80.707 33.884,83.825 32.716 C 84.760 32.366,86.048 32.555,87.116 33.198 " fill="black" stroke="none" fill-rule="evenodd"></path></svg>