<svg xmlns="http://www.w3.org/2000/svg" width="100" height="100"><path d="M10.000 4.943 L 10.000 7.433 12.126 7.625 C 20.653 8.398,27.148 12.824,33.412 22.131 C 34.227 23.342,34.941 24.333,34.998 24.333 C 35.055 24.333,35.825 23.265,36.710 21.958 C 40.388 16.527,43.642 13.251,47.788 10.803 C 50.339 9.298,53.824 8.081,56.542 7.746 L 57.500 7.628 57.500 49.481 C 57.500 72.500,57.452 91.333,57.393 91.333 C 57.334 91.333,56.220 90.783,54.919 90.110 C 50.589 87.871,47.745 85.763,43.990 82.009 C 41.185 79.205,39.419 77.042,36.898 73.321 C 35.909 71.861,35.049 70.667,34.986 70.667 C 34.924 70.667,34.545 71.171,34.145 71.787 C 27.146 82.562,19.440 89.045,9.468 92.550 C 9.216 92.638,9.268 92.898,9.949 94.949 C 10.370 96.215,10.740 97.280,10.772 97.318 C 10.885 97.449,14.608 95.948,16.557 94.984 C 23.159 91.722,28.758 87.148,33.725 80.958 C 34.368 80.156,34.944 79.500,35.005 79.500 C 35.065 79.500,35.544 80.044,36.069 80.708 C 40.868 86.779,46.629 91.565,52.974 94.752 C 55.390 95.965,56.785 96.535,60.125 97.675 L 62.500 98.485 62.500 50.468 L 62.500 2.450 59.458 2.557 C 57.785 2.616,55.817 2.770,55.083 2.898 C 49.707 3.842,45.206 5.947,40.917 9.525 C 39.331 10.847,36.629 13.606,35.661 14.890 C 35.343 15.312,35.046 15.656,35.000 15.656 C 34.954 15.656,34.657 15.312,34.339 14.890 C 33.380 13.617,30.674 10.852,29.124 9.559 C 23.912 5.213,18.451 3.021,11.708 2.567 L 10.000 2.452 10.000 4.943 " fill="black" stroke="none" fill-rule="evenodd"></path></svg>