<svg xmlns="http://www.w3.org/2000/svg" width="100" height="100"><path d="M88.585 2.936 C 75.512 12.893,64.774 22.126,53.474 33.125 C 51.662 34.890,50.098 36.333,50.000 36.333 C 49.902 36.333,48.331 34.883,46.510 33.110 C 35.969 22.848,24.808 13.189,13.300 4.370 L 11.517 3.003 10.755 3.993 C 10.061 4.895,9.891 5.016,8.830 5.358 C 8.190 5.564,7.667 5.778,7.667 5.833 C 7.667 5.888,8.596 8.592,9.731 11.842 C 19.139 38.763,30.788 64.894,45.206 91.417 C 49.028 98.448,49.894 99.999,50.000 99.999 C 50.180 99.999,57.061 87.346,60.032 81.551 L 62.185 77.352 63.134 77.083 C 63.656 76.935,64.233 76.773,64.417 76.721 C 64.972 76.566,67.347 75.339,68.157 74.790 C 69.234 74.058,71.666 71.949,71.666 71.747 C 71.666 71.653,70.916 70.829,69.999 69.915 C 68.724 68.645,68.275 68.292,68.097 68.418 C 67.968 68.509,67.442 68.950,66.928 69.399 C 66.413 69.847,65.958 70.180,65.916 70.138 C 65.874 70.097,66.731 68.230,67.820 65.990 C 77.132 46.837,85.554 26.052,93.090 3.625 L 94.308 0.000 93.362 0.009 L 92.417 0.018 88.585 2.936 M21.417 17.236 C 29.891 24.310,37.481 31.205,45.537 39.147 L 49.997 43.544 54.632 38.980 C 62.520 31.212,70.160 24.264,78.083 17.654 C 81.204 15.050,84.833 12.131,84.833 12.223 C 84.833 12.370,83.296 16.605,81.586 21.167 C 77.678 31.592,72.364 44.314,67.452 55.000 C 64.992 60.352,59.423 71.929,59.144 72.273 C 59.036 72.406,58.785 72.416,58.302 72.308 C 56.642 71.935,54.561 70.749,52.807 69.178 C 52.288 68.714,51.802 68.333,51.726 68.333 C 51.526 68.333,48.333 71.546,48.334 71.747 C 48.334 71.949,50.766 74.058,51.843 74.790 C 52.846 75.471,55.070 76.581,55.958 76.843 C 56.348 76.959,56.667 77.086,56.667 77.128 C 56.667 77.427,50.162 89.500,50.000 89.500 C 49.834 89.500,46.712 83.714,43.165 76.833 C 34.065 59.180,25.172 39.180,18.403 21.141 C 16.651 16.471,15.167 12.386,15.167 12.232 C 15.167 12.138,18.636 14.915,21.417 17.236 " fill="black" stroke="none" fill-rule="evenodd"></path></svg>