<svg xmlns="http://www.w3.org/2000/svg" width="100" height="100"><path d="M10.000 4.957 L 10.000 7.448 11.669 7.651 C 14.532 7.998,17.012 9.028,19.526 10.917 C 24.953 14.993,29.255 22.035,34.416 35.292 C 34.674 35.956,34.936 36.500,34.997 36.500 C 35.058 36.500,35.471 35.581,35.915 34.458 C 38.574 27.727,40.469 23.683,42.642 20.100 C 45.845 14.822,49.517 11.039,53.224 9.197 C 54.705 8.462,56.495 7.833,57.111 7.833 L 57.500 7.833 57.500 47.426 L 57.500 87.019 56.511 85.873 C 54.240 83.240,51.554 81.327,48.833 80.401 C 47.577 79.974,44.938 79.971,43.667 80.396 C 40.800 81.353,37.728 84.212,35.722 87.792 C 35.401 88.365,35.081 88.833,35.012 88.833 C 34.942 88.833,34.563 88.290,34.168 87.625 C 31.951 83.894,29.195 81.351,26.333 80.396 C 25.062 79.971,22.423 79.974,21.167 80.401 C 17.071 81.795,13.507 85.091,9.392 91.292 C 8.626 92.446,8.000 93.485,8.000 93.601 C 8.000 93.717,8.936 94.376,10.081 95.066 C 12.132 96.302,12.165 96.315,12.356 95.952 C 12.756 95.192,14.917 92.035,15.918 90.747 C 18.937 86.865,22.052 84.726,24.187 85.067 C 27.257 85.558,29.986 89.224,33.135 97.083 L 34.271 99.917 35.000 99.917 L 35.729 99.917 36.865 97.083 C 40.014 89.224,42.743 85.558,45.813 85.067 C 47.938 84.727,51.064 86.873,54.083 90.746 C 55.242 92.232,57.383 95.472,59.013 98.208 L 60.081 100.000 61.290 100.000 L 62.500 100.000 62.500 51.225 L 62.500 2.450 59.958 2.545 C 55.246 2.722,52.268 3.662,48.573 6.137 C 43.961 9.227,39.710 14.492,36.000 21.712 C 35.496 22.693,35.046 23.496,35.000 23.496 C 34.954 23.496,34.504 22.693,34.000 21.712 C 30.297 14.506,26.030 9.221,21.427 6.137 C 18.147 3.940,15.209 2.901,11.375 2.580 L 10.000 2.465 10.000 4.957 " fill="black" stroke="none" fill-rule="evenodd"></path></svg>