<svg xmlns="http://www.w3.org/2000/svg" width="100" height="100"><path d="M38.698 2.565 C 34.332 8.373,30.932 11.225,27.250 12.167 C 25.602 12.588,24.398 12.588,22.750 12.167 C 19.709 11.389,16.667 9.139,13.463 5.298 L 11.972 3.511 9.982 5.014 L 7.991 6.517 8.785 7.550 C 10.021 9.159,14.114 13.184,15.500 14.155 C 17.173 15.327,19.338 16.402,21.121 16.944 C 22.418 17.339,22.857 17.390,25.000 17.390 C 27.143 17.390,27.582 17.339,28.879 16.944 C 32.099 15.964,34.655 14.330,37.868 11.197 L 40.000 9.118 42.132 11.197 C 45.345 14.330,47.901 15.964,51.121 16.944 C 52.418 17.339,52.857 17.390,55.000 17.390 C 57.146 17.390,57.581 17.340,58.887 16.942 C 59.696 16.696,60.652 16.344,61.012 16.161 C 61.372 15.977,61.663 15.884,61.657 15.955 C 61.652 16.026,56.754 25.862,50.772 37.813 L 39.895 59.543 39.087 58.247 C 34.786 51.346,29.749 47.506,25.000 47.506 C 20.197 47.506,15.152 51.391,10.792 58.448 C 9.789 60.072,7.833 63.610,7.833 63.801 C 7.833 63.931,11.899 66.000,12.154 66.000 C 12.237 66.000,12.718 65.218,13.224 64.262 C 17.560 56.071,22.170 51.838,25.904 52.621 C 28.029 53.066,30.161 54.642,32.355 57.387 C 34.278 59.794,35.672 62.091,37.961 66.624 C 39.037 68.754,39.954 70.498,40.000 70.499 C 40.046 70.499,47.321 56.021,56.167 38.324 C 69.418 11.814,72.206 6.121,72.000 5.995 C 71.862 5.911,70.911 5.319,69.885 4.681 L 68.020 3.520 66.533 5.303 C 63.333 9.139,60.290 11.389,57.250 12.167 C 55.602 12.588,54.398 12.588,52.750 12.167 C 49.068 11.225,45.668 8.373,41.302 2.565 C 40.655 1.704,40.069 1.000,40.000 1.000 C 39.931 1.000,39.345 1.704,38.698 2.565 " fill="black" stroke="none" fill-rule="evenodd"></path></svg>