<svg xmlns="http://www.w3.org/2000/svg" width="100" height="100"><path d="M10.000 4.981 C 10.000 7.268,10.027 7.500,10.292 7.502 C 10.941 7.505,12.290 8.320,13.054 9.169 C 18.147 14.833,21.222 32.119,22.171 60.417 C 22.269 63.350,22.414 69.762,22.493 74.667 C 22.622 82.614,22.673 83.746,22.969 85.083 C 24.458 91.826,28.472 95.747,35.288 97.115 C 37.346 97.528,42.654 97.528,44.712 97.115 C 50.681 95.917,54.610 92.653,56.361 87.440 C 57.318 84.590,57.344 84.293,57.504 74.500 C 57.729 60.655,58.037 52.758,58.676 44.417 C 60.122 25.541,62.910 13.658,66.946 9.169 C 67.710 8.320,69.059 7.505,69.708 7.502 C 69.973 7.500,70.000 7.268,70.000 4.981 L 70.000 2.462 69.042 2.581 C 61.293 3.545,56.671 14.414,54.264 37.333 C 53.223 47.242,52.718 57.587,52.575 71.917 C 52.525 76.867,52.407 81.663,52.312 82.576 C 51.881 86.721,50.171 89.571,47.250 91.011 C 44.978 92.131,43.721 92.377,40.167 92.398 C 36.494 92.420,35.198 92.185,32.917 91.083 C 29.832 89.593,28.130 86.824,27.688 82.576 C 27.593 81.663,27.475 76.867,27.425 71.917 C 27.111 40.523,24.476 19.721,19.578 9.982 C 17.355 5.562,14.378 3.006,10.958 2.581 L 10.000 2.462 10.000 4.981 " fill="black" stroke="none" fill-rule="evenodd"></path></svg>