<svg xmlns="http://www.w3.org/2000/svg" width="100" height="100"><path d="M51.875 44.102 C 31.960 66.515,15.667 84.776,15.667 84.681 C 15.667 84.586,15.964 83.231,16.328 81.670 C 22.062 57.047,21.057 32.169,13.320 7.250 C 12.865 5.783,12.461 4.494,12.422 4.384 C 12.373 4.246,11.650 4.418,10.051 4.949 C 8.785 5.370,7.723 5.736,7.691 5.763 C 7.659 5.790,8.047 7.148,8.554 8.781 C 11.932 19.660,13.838 29.799,14.689 41.417 C 14.941 44.855,14.941 55.145,14.689 58.583 C 13.838 70.201,11.932 80.340,8.554 91.219 C 8.047 92.852,7.659 94.211,7.691 94.239 C 7.884 94.408,11.882 96.672,11.916 96.632 C 13.542 94.710,49.913 53.917,50.000 53.917 C 50.087 53.917,86.458 94.710,88.084 96.632 C 88.118 96.672,92.109 94.412,92.305 94.244 C 92.335 94.218,91.946 92.858,91.441 91.223 C 88.035 80.191,86.170 70.263,85.309 58.583 C 84.884 52.814,85.080 43.029,85.755 36.250 C 86.628 27.493,88.590 18.011,91.441 8.777 C 91.946 7.142,92.335 5.784,92.305 5.760 C 92.215 5.687,88.124 3.333,88.103 3.341 C 88.092 3.346,71.790 21.688,51.875 44.102 M83.610 18.611 C 78.793 39.816,78.813 60.806,83.672 81.670 C 84.036 83.231,84.333 84.586,84.333 84.680 C 84.333 84.775,77.391 77.043,68.906 67.499 C 60.422 57.955,53.503 50.052,53.531 49.938 C 53.589 49.704,84.218 15.191,84.305 15.261 C 84.336 15.285,84.023 16.793,83.610 18.611 " fill="black" stroke="none" fill-rule="evenodd"></path></svg>