<svg xmlns="http://www.w3.org/2000/svg" width="100" height="100"><path d="M9.955 9.961 C 9.063 10.857,8.333 11.663,8.333 11.753 C 8.333 11.843,16.902 20.485,27.375 30.958 L 46.416 50.000 27.334 69.083 L 8.251 88.166 10.043 89.957 L 11.834 91.749 30.917 72.666 L 50.000 53.584 69.083 72.666 L 88.166 91.749 89.957 89.957 L 91.749 88.166 72.666 69.083 L 53.584 50.000 72.625 30.958 C 83.098 20.485,91.667 11.840,91.667 11.747 C 91.667 11.529,88.465 8.333,88.247 8.333 C 88.157 8.333,79.515 16.902,69.042 27.375 L 50.000 46.416 30.958 27.375 C 20.485 16.902,11.840 8.333,11.747 8.333 C 11.653 8.333,10.847 9.066,9.955 9.961 " fill="black" stroke="none" fill-rule="evenodd"></path></svg>