<svg xmlns="http://www.w3.org/2000/svg" width="100" height="100"><path d="M9.955 9.961 C 9.063 10.857,8.333 11.663,8.333 11.753 C 8.333 11.843,17.146 20.729,27.917 31.500 L 47.500 51.083 47.500 70.541 L 47.500 90.000 50.000 90.000 L 52.500 90.000 52.500 70.541 L 52.500 51.083 72.083 31.500 C 82.854 20.729,91.667 11.841,91.667 11.747 C 91.667 11.530,88.465 8.333,88.247 8.333 C 88.157 8.333,79.515 16.902,69.042 27.375 L 50.000 46.416 30.958 27.375 C 20.485 16.902,11.840 8.333,11.747 8.333 C 11.653 8.333,10.847 9.066,9.955 9.961 " fill="black" stroke="none" fill-rule="evenodd"></path></svg>